<svg xmlns="http://www.w3.org/2000/svg" xmlns:xlink="http://www.w3.org/1999/xlink" width="64" zoomAndPan="magnify" viewBox="0 0 48 48" height="64" preserveAspectRatio="xMidYMid meet" version="1.0"><defs><g/></defs><g fill="#e4a608" fill-opacity="1"><g transform="translate(9.608665, 32.796391)"><g><path d="M 2.734375 -16.453125 C 2.867188 -16.441406 2.984375 -16.382812 3.078125 -16.28125 C 3.179688 -16.1875 3.226562 -16.070312 3.21875 -15.9375 L 3.15625 -1.734375 C 3.144531 -1.515625 3.035156 -1.363281 2.828125 -1.28125 C 2.796875 -1.269531 2.773438 -1.265625 2.765625 -1.265625 C 2.503906 -1.210938 2.3125 -1.300781 2.1875 -1.53125 L -3.6875 -13.453125 C -3.738281 -13.578125 -3.738281 -13.703125 -3.6875 -13.828125 C -3.644531 -13.953125 -3.566406 -14.046875 -3.453125 -14.109375 C -3.328125 -14.171875 -3.195312 -14.175781 -3.0625 -14.125 C -2.9375 -14.082031 -2.84375 -14.003906 -2.78125 -13.890625 L 2.15625 -3.859375 L 2.21875 -15.953125 C 2.226562 -16.085938 2.28125 -16.203125 2.375 -16.296875 C 2.476562 -16.390625 2.597656 -16.441406 2.734375 -16.453125 Z M 2.734375 -16.453125 "/></g></g></g><g fill="#e4a608" fill-opacity="1"><g transform="translate(17.735577, 29.673547)"><g><path d="M -0.515625 -7.28125 C -0.378906 -7.289062 -0.25 -7.257812 -0.125 -7.1875 C -0.0078125 -7.113281 0.0546875 -7.007812 0.078125 -6.875 L 1.28125 -0.71875 C 1.332031 -0.445312 1.234375 -0.257812 0.984375 -0.15625 C 0.953125 -0.144531 0.914062 -0.132812 0.875 -0.125 C 0.738281 -0.101562 0.613281 -0.128906 0.5 -0.203125 C 0.394531 -0.285156 0.320312 -0.390625 0.28125 -0.515625 L -0.9375 -6.6875 C -0.957031 -6.820312 -0.925781 -6.941406 -0.84375 -7.046875 C -0.757812 -7.160156 -0.648438 -7.238281 -0.515625 -7.28125 Z M -1.546875 -11.109375 C -1.378906 -11.179688 -1.210938 -11.179688 -1.046875 -11.109375 C -0.878906 -11.046875 -0.765625 -10.929688 -0.703125 -10.765625 C -0.640625 -10.597656 -0.644531 -10.429688 -0.71875 -10.265625 C -0.789062 -10.097656 -0.910156 -9.976562 -1.078125 -9.90625 C -1.242188 -9.84375 -1.40625 -9.847656 -1.5625 -9.921875 C -1.726562 -10.003906 -1.84375 -10.128906 -1.90625 -10.296875 C -1.96875 -10.460938 -1.960938 -10.625 -1.890625 -10.78125 C -1.828125 -10.9375 -1.710938 -11.046875 -1.546875 -11.109375 Z M -1.546875 -11.109375 "/></g></g></g><g fill="#e4a608" fill-opacity="1"><g transform="translate(20.527413, 28.600757)"><g><path d="M 3.609375 -8.4375 C 3.878906 -8.320312 4.128906 -8.066406 4.359375 -7.671875 C 4.585938 -7.273438 4.796875 -6.785156 4.984375 -6.203125 C 5.179688 -5.628906 5.347656 -5.039062 5.484375 -4.4375 C 5.628906 -3.832031 5.75 -3.289062 5.84375 -2.8125 C 5.875 -2.6875 5.847656 -2.5625 5.765625 -2.4375 C 5.679688 -2.320312 5.570312 -2.25 5.4375 -2.21875 C 5.300781 -2.1875 5.171875 -2.210938 5.046875 -2.296875 C 4.929688 -2.378906 4.867188 -2.492188 4.859375 -2.640625 C 4.691406 -3.421875 4.515625 -4.164062 4.328125 -4.875 C 4.140625 -5.59375 3.945312 -6.179688 3.75 -6.640625 C 3.5625 -7.109375 3.40625 -7.382812 3.28125 -7.46875 C 3.101562 -7.53125 2.945312 -7.507812 2.8125 -7.40625 C 2.550781 -7.207031 2.320312 -6.863281 2.125 -6.375 C 1.9375 -5.882812 1.78125 -5.316406 1.65625 -4.671875 C 1.53125 -4.023438 1.429688 -3.363281 1.359375 -2.6875 C 1.285156 -2.019531 1.242188 -1.421875 1.234375 -0.890625 C 1.234375 -0.671875 1.125 -0.519531 0.90625 -0.4375 C 0.863281 -0.425781 0.8125 -0.421875 0.75 -0.421875 C 0.625 -0.390625 0.507812 -0.414062 0.40625 -0.5 C 0.3125 -0.582031 0.257812 -0.6875 0.25 -0.8125 L -0.9375 -6.6875 C -0.988281 -6.8125 -0.96875 -6.929688 -0.875 -7.046875 C -0.789062 -7.171875 -0.679688 -7.242188 -0.546875 -7.265625 C -0.421875 -7.304688 -0.296875 -7.285156 -0.171875 -7.203125 C -0.0546875 -7.117188 0.0078125 -7.007812 0.03125 -6.875 L 0.546875 -4.296875 C 0.648438 -4.828125 0.773438 -5.351562 0.921875 -5.875 C 1.078125 -6.40625 1.257812 -6.875 1.46875 -7.28125 C 1.675781 -7.6875 1.9375 -8.003906 2.25 -8.234375 C 2.65625 -8.523438 3.109375 -8.59375 3.609375 -8.4375 Z M 3.609375 -8.4375 "/></g></g></g><g fill="#e4a608" fill-opacity="1"><g transform="translate(27.755574, 25.823267)"><g><path d="M 3.609375 -8.4375 C 3.878906 -8.320312 4.128906 -8.066406 4.359375 -7.671875 C 4.585938 -7.273438 4.796875 -6.785156 4.984375 -6.203125 C 5.179688 -5.628906 5.347656 -5.039062 5.484375 -4.4375 C 5.628906 -3.832031 5.75 -3.289062 5.84375 -2.8125 C 5.875 -2.6875 5.847656 -2.5625 5.765625 -2.4375 C 5.679688 -2.320312 5.570312 -2.25 5.4375 -2.21875 C 5.300781 -2.1875 5.171875 -2.210938 5.046875 -2.296875 C 4.929688 -2.378906 4.867188 -2.492188 4.859375 -2.640625 C 4.691406 -3.421875 4.515625 -4.164062 4.328125 -4.875 C 4.140625 -5.59375 3.945312 -6.179688 3.75 -6.640625 C 3.5625 -7.109375 3.40625 -7.382812 3.28125 -7.46875 C 3.101562 -7.53125 2.945312 -7.507812 2.8125 -7.40625 C 2.550781 -7.207031 2.320312 -6.863281 2.125 -6.375 C 1.9375 -5.882812 1.78125 -5.316406 1.65625 -4.671875 C 1.53125 -4.023438 1.429688 -3.363281 1.359375 -2.6875 C 1.285156 -2.019531 1.242188 -1.421875 1.234375 -0.890625 C 1.234375 -0.671875 1.125 -0.519531 0.90625 -0.4375 C 0.863281 -0.425781 0.8125 -0.421875 0.75 -0.421875 C 0.625 -0.390625 0.507812 -0.414062 0.40625 -0.5 C 0.3125 -0.582031 0.257812 -0.6875 0.25 -0.8125 L -0.9375 -6.6875 C -0.988281 -6.8125 -0.96875 -6.929688 -0.875 -7.046875 C -0.789062 -7.171875 -0.679688 -7.242188 -0.546875 -7.265625 C -0.421875 -7.304688 -0.296875 -7.285156 -0.171875 -7.203125 C -0.0546875 -7.117188 0.0078125 -7.007812 0.03125 -6.875 L 0.546875 -4.296875 C 0.648438 -4.828125 0.773438 -5.351562 0.921875 -5.875 C 1.078125 -6.40625 1.257812 -6.875 1.46875 -7.28125 C 1.675781 -7.6875 1.9375 -8.003906 2.25 -8.234375 C 2.65625 -8.523438 3.109375 -8.59375 3.609375 -8.4375 Z M 3.609375 -8.4375 "/></g></g></g><g fill="#e4a608" fill-opacity="1"><g transform="translate(34.983735, 23.045777)"><g><path d="M -0.515625 -7.28125 C -0.378906 -7.289062 -0.25 -7.257812 -0.125 -7.1875 C -0.0078125 -7.113281 0.0546875 -7.007812 0.078125 -6.875 L 1.28125 -0.71875 C 1.332031 -0.445312 1.234375 -0.257812 0.984375 -0.15625 C 0.953125 -0.144531 0.914062 -0.132812 0.875 -0.125 C 0.738281 -0.101562 0.613281 -0.128906 0.5 -0.203125 C 0.394531 -0.285156 0.320312 -0.390625 0.28125 -0.515625 L -0.9375 -6.6875 C -0.957031 -6.820312 -0.925781 -6.941406 -0.84375 -7.046875 C -0.757812 -7.160156 -0.648438 -7.238281 -0.515625 -7.28125 Z M -1.546875 -11.109375 C -1.378906 -11.179688 -1.210938 -11.179688 -1.046875 -11.109375 C -0.878906 -11.046875 -0.765625 -10.929688 -0.703125 -10.765625 C -0.640625 -10.597656 -0.644531 -10.429688 -0.71875 -10.265625 C -0.789062 -10.097656 -0.910156 -9.976562 -1.078125 -9.90625 C -1.242188 -9.84375 -1.40625 -9.847656 -1.5625 -9.921875 C -1.726562 -10.003906 -1.84375 -10.128906 -1.90625 -10.296875 C -1.96875 -10.460938 -1.960938 -10.625 -1.890625 -10.78125 C -1.828125 -10.9375 -1.710938 -11.046875 -1.546875 -11.109375 Z M -1.546875 -11.109375 "/></g></g></g><g fill="#e4a608" fill-opacity="1"><g transform="translate(37.775572, 21.972987)"><g><path d="M 4.21875 -3.734375 C 4.28125 -3.835938 4.378906 -3.910156 4.515625 -3.953125 C 4.648438 -3.992188 4.78125 -3.984375 4.90625 -3.921875 C 5.03125 -3.859375 5.109375 -3.757812 5.140625 -3.625 C 5.179688 -3.488281 5.171875 -3.359375 5.109375 -3.234375 C 4.921875 -2.890625 4.648438 -2.523438 4.296875 -2.140625 C 3.953125 -1.765625 3.515625 -1.476562 2.984375 -1.28125 C 2.835938 -1.21875 2.6875 -1.160156 2.53125 -1.109375 C 1.78125 -0.953125 1.101562 -1.109375 0.5 -1.578125 C 0.132812 -1.859375 -0.148438 -2.234375 -0.359375 -2.703125 C -0.390625 -2.722656 -0.410156 -2.753906 -0.421875 -2.796875 C -0.421875 -2.796875 -0.414062 -2.804688 -0.40625 -2.828125 C -0.601562 -3.273438 -0.703125 -3.789062 -0.703125 -4.375 C -0.710938 -4.9375 -0.59375 -5.5 -0.34375 -6.0625 C -0.09375 -6.632812 0.265625 -7.128906 0.734375 -7.546875 C 1.066406 -7.847656 1.398438 -8.078125 1.734375 -8.234375 C 2.078125 -8.390625 2.394531 -8.445312 2.6875 -8.40625 C 3.21875 -8.351562 3.59375 -8.109375 3.8125 -7.671875 C 3.957031 -7.359375 3.992188 -6.976562 3.921875 -6.53125 C 3.847656 -6.09375 3.671875 -5.640625 3.390625 -5.171875 C 2.941406 -4.472656 2.472656 -3.925781 1.984375 -3.53125 C 1.503906 -3.144531 1.101562 -2.867188 0.78125 -2.703125 C 0.882812 -2.566406 1 -2.445312 1.125 -2.34375 C 1.46875 -2.082031 1.863281 -2.003906 2.3125 -2.109375 C 2.78125 -2.222656 3.171875 -2.441406 3.484375 -2.765625 C 3.804688 -3.097656 4.050781 -3.421875 4.21875 -3.734375 Z M 0.3125 -4.375 C 0.3125 -4.125 0.34375 -3.878906 0.40625 -3.640625 C 0.664062 -3.785156 0.992188 -4.019531 1.390625 -4.34375 C 1.785156 -4.664062 2.160156 -5.117188 2.515625 -5.703125 C 2.734375 -6.054688 2.863281 -6.363281 2.90625 -6.625 C 2.957031 -6.894531 2.957031 -7.101562 2.90625 -7.25 C 2.882812 -7.257812 2.847656 -7.285156 2.796875 -7.328125 C 2.753906 -7.367188 2.679688 -7.394531 2.578125 -7.40625 C 2.492188 -7.414062 2.382812 -7.394531 2.25 -7.34375 C 2.132812 -7.289062 2.007812 -7.21875 1.875 -7.125 C 1.738281 -7.039062 1.585938 -6.929688 1.421875 -6.796875 C 1.066406 -6.472656 0.789062 -6.097656 0.59375 -5.671875 C 0.40625 -5.242188 0.3125 -4.8125 0.3125 -4.375 Z M 0.3125 -4.375 "/></g></g></g></svg>